<svg width="500" height="500" viewBox="0 0 500 500" fill="none" xmlns="http://www.w3.org/2000/svg">
<rect width="500" height="500" fill="#FFF500"/>
<path d="M256.174 280.977H292.649V403.531C292.649 414.798 290.136 424.768 285.111 433.44C280.167 442.032 273.155 448.679 264.077 453.38C254.999 458.081 244.746 460.432 233.317 460.432C214.593 460.432 200.003 455.69 189.547 446.207C179.091 436.642 173.863 423.146 173.863 405.72H210.581C210.581 414.393 212.405 420.796 216.052 424.93C219.7 429.063 225.455 431.13 233.317 431.13C240.288 431.13 245.84 428.739 249.974 423.957C254.107 419.175 256.174 412.366 256.174 403.531V280.977ZM415.69 411.556C415.69 404.666 413.258 399.397 408.395 395.75C403.532 392.021 394.778 388.131 382.133 384.078C369.489 379.944 359.479 375.892 352.103 371.92C332.001 361.059 321.95 346.428 321.95 328.029C321.95 318.464 324.625 309.954 329.975 302.497C335.405 294.958 343.146 289.082 353.197 284.867C363.329 280.652 374.676 278.545 387.24 278.545C399.884 278.545 411.151 280.855 421.04 285.475C430.928 290.014 438.588 296.458 444.019 304.807C449.53 313.155 452.286 322.639 452.286 333.257H415.812C415.812 325.151 413.258 318.87 408.152 314.412C403.045 309.873 395.872 307.603 386.632 307.603C377.716 307.603 370.786 309.508 365.841 313.317C360.897 317.046 358.425 321.99 358.425 328.15C358.425 333.905 361.302 338.728 367.057 342.619C372.893 346.509 381.444 350.157 392.711 353.561C413.461 359.802 428.578 367.543 438.061 376.783C447.544 386.023 452.286 397.533 452.286 411.312C452.286 426.632 446.491 438.668 434.9 447.422C423.309 456.095 407.706 460.432 388.091 460.432C374.474 460.432 362.072 457.959 350.887 453.015C339.701 447.99 331.15 441.141 325.233 432.468C319.397 423.795 316.479 413.744 316.479 402.315H353.075C353.075 421.85 364.747 431.617 388.091 431.617C396.764 431.617 403.532 429.874 408.395 426.389C413.258 422.822 415.69 417.878 415.69 411.556Z" fill="black"/>
</svg>
