<svg width="450" height="500" viewBox="0 0 450 500" fill="none" xmlns="http://www.w3.org/2000/svg">
<g id="Group">
<path id="Vector" d="M332.296 219.875C332.296 219.875 327.993 184.292 288.438 184.292C248.879 184.292 221.794 189.255 221.794 210.359C221.794 231.462 298.761 231.462 328.001 239.735C357.241 248.008 383.037 269.525 370.137 307.592C357.237 345.659 317.678 349.796 256.621 349.796C195.565 349.796 181.802 300.968 181.802 281.939H216.199C216.199 281.939 211.897 311.729 252.315 316.692C292.733 321.655 331.38 324.449 336.591 294.352C343.47 254.628 205.876 274.492 193.835 235.599C183.664 202.736 189.533 159.469 258.332 152.845C327.131 146.221 364.968 175.452 364.968 219.049L332.296 219.875Z" fill="#66A060"/>
<path id="Vector_2" d="M0.00382775 375.003L76.0509 417.25C114.261 438.478 162.022 411.943 162.022 369.487V295.453V159.202H131.026V361.192C131.026 384.377 104.945 398.871 84.0745 387.273L30.9958 357.787V142.217L225.002 34.4422L419.008 142.217V357.787L225.002 465.561L169.114 434.513L132.619 448.675L224.998 500L450 374.992V125.001L225.002 0L0 125.008V375.003H0.00382775Z" fill="#66A060"/>
</g>
</svg>
