<svg width="2500" height="2500" viewBox="0 0 2500 2500" fill="none" xmlns="http://www.w3.org/2000/svg">
<g id="Group 1">
<circle id="Ellipse 1" cx="1250" cy="1250" r="1250" fill="white"/>
<path id="Vector" d="M1243.62 240.545L1297.8 342.306C1309.98 361.084 1323.17 377.706 1338.72 393.186C1384.29 438.187 1426.76 486.216 1465.85 536.945C1557.65 657.485 1619.57 791.347 1663.79 936.121C1690.31 1024.56 1704.71 1115.28 1705.79 1207.02C1710.23 1481.28 1616.21 1716.77 1426.65 1912.49C1395.81 1943.53 1362.5 1972 1327.04 1997.63C1308.26 1997.63 1299.38 1983.23 1291.64 1969.97C1277.55 1945.38 1268.17 1918.38 1263.98 1890.35C1257.32 1857.17 1252.94 1823.99 1255.1 1789.73V1774.25C1253.58 1770.95 1237.02 248.348 1243.62 240.545V240.545Z" fill="#599636"/>
<path id="Vector_2" d="M1243.62 237.183C1241.4 232.742 1239.18 236.104 1236.96 238.261C1238.03 260.466 1230.29 280.26 1218.18 299.165C1204.85 317.944 1187.22 332.345 1169.52 347.825C1071.18 432.964 993.783 535.803 931.8 650.823C849.326 805.621 806.82 971.522 794.766 1146.18C789.247 1209.17 814.687 1431.47 834.544 1495.61C888.723 1665.89 986.043 1808.57 1112.1 1932.41C1143.06 1962.23 1176.18 1989.89 1210.44 2016.47C1220.4 2016.47 1221.48 2007.59 1223.76 2000.99C1228.13 1986.87 1231.46 1972.45 1233.72 1957.85L1255.92 1792.01L1243.62 237.183Z" fill="#6CAC48"/>
<path id="Vector_3" d="M1297.8 2065C1300.02 2039.63 1312.2 2018.56 1325.46 1997.57C1312.13 1992.05 1302.24 1981.07 1294.5 1968.83C1287.82 1957.23 1282.3 1945.02 1278 1932.35C1262.52 1885.91 1259.22 1837.18 1254.78 1789.73V1760.99C1249.26 1765.43 1248.12 1802.99 1248.12 1808.57C1244.89 1858.73 1238.24 1908.6 1228.2 1957.85C1224.9 1977.77 1222.68 1997.63 1210.44 2015.33C1210.44 2017.55 1210.44 2019.77 1211.52 2023.07C1231.44 2081.69 1236.89 2141.39 1240.25 2202.23V2224.43C1240.25 2250.95 1239.18 2245.37 1261.19 2254.25C1270.07 2257.55 1279.97 2258.69 1288.85 2265.29C1295.51 2265.29 1296.59 2259.77 1296.59 2255.33L1293.29 2218.85V2117.09C1292.21 2099.33 1295.51 2081.69 1297.73 2065.07L1297.8 2065Z" fill="#C2BFBF"/>
<circle id="Ellipse 2" cx="1250" cy="1250" r="1230" stroke="#C4C4C4" stroke-width="40"/>
</g>
</svg>
